#!OML:ASF H:\Terrain\Patient Classification 1\PLAYGROUND\JustinFriday\JustinFriday.ASF
:FULLY-SPECIFIED
:DEGREES
1713
root -14.2607 27.3659 -4.6617 312.624 -2.20246 3.86175
lowerback 37.0956 1.27913 0.363301
upperback 12.91 1.79263 0.962342
thorax -4.07246 0.861036 0.197259
lowerneck 0.826497 -5.93148 -4.99597
upperneck 11.5226 -7.92771 0.730345
head 3.86965 -4.10804 0.845609
rclavicle -2.13694e-015 1.66979e-014
rhumerus 30.8918 -23.2982 -43.4421
rradius 83.1943
rwrist 7.235
rhand -19.3855 -7.23453
rfingers 7.12502
rthumb 6.93301 -37.101
lclavicle -2.13694e-015 1.66979e-014
lhumerus 58.3452 11.7804 68.1814
lradius 76.1026
lwrist -11.2881
lhand 27.4109 5.66202
lfingers 7.12502
lthumb 51.3649 26.1375
rfemur -31.8604 3.40322 8.98095
rtibia 37.6447
rfoot 15.0159 -6.34055
rtoes 11.0434
lfemur -33.1164 4.56655 -12.2221
ltibia 39.5222
lfoot 11.0558 -4.32227
ltoes -7.78155
1714
root -14.2831 27.3387 -4.64914 312.293 -5.00576 1.52808
lowerback 37.1325 0.969305 3.05609
upperback 12.1786 2.45686 2.12473
thorax -4.82971 1.20407 -0.227168
lowerneck 7.14486 -5.88164 -6.31668
upperneck 8.3288 -8.32067 2.10658
head 1.80757 -4.31303 1.76059
rclavicle 6.65929e-015 -1.27222e-014
rhumerus 29.561 -21.9851 -42.8984
rradius 82.944
rwrist 9.18093
rhand -22.0418 -6.75097
rfingers 7.12502
rthumb 4.36842 -36.6859
lclavicle 6.65929e-015 -1.27222e-014
lhumerus 56.1372 11.3269 67.2406
lradius 75.9096
lwrist -10.3126
lhand 27.6007 5.51136
lfingers 7.12502
lthumb 51.5375 25.8878
rfemur -31.4153 4.6861 13.1509
rtibia 36.6681
rfoot 14.8354 -7.24976
rtoes 8.01226
lfemur -33.4595 4.99479 -8.02249
ltibia 39.8571
lfoot 10.71 -4.90784
ltoes -9.2362
1715
root -14.2885 27.2329 -4.51336 313.261 -7.43982 -0.784387
lowerback 36.8349 0.326647 6.09312
upperback 12.6872 2.71723 2.79072
thorax -4.02681 1.41025 -1.16504
lowerneck 3.46223 -6.42825 -6.44117
upperneck 9.51153 -8.82293 1.89746
head 2.86618 -4.56302 1.56309
rclavicle 1.92076e-014 -3.18055e-015
rhumerus 32.0167 -23.4711 -44.9029
rradius 82.4956
rwrist 11.3861
rhand -22.5258 -6.48178
rfingers 7.12502
rthumb 3.90101 -36.4258
lclavicle 1.92076e-014 -3.18055e-015
lhumerus 58.0987 11.7172 67.2955
lradius 75.1481
lwrist -9.96293
lhand 27.9689 5.54169
lfingers 7.12502
lthumb 51.872 25.7231
rfemur -31.9842 4.30378 17.3944
rtibia 35.1458
rfoot 15.3818 -7.52056
rtoes 6.41604
lfemur -35.8772 5.6613 -4.24904
ltibia 41.1147
lfoot 10.7135 -5.11763
ltoes -8.13032
1716
root -14.2684 27.2484 -4.49291 311.662 -3.03946 2.7718
lowerback 37.4743 1.01991 1.58268
upperback 13.3326 1.91793 1.29825
thorax -3.70818 0.952575 -0.124801
lowerneck 1.06704 -7.87026 -5.14097
upperneck 9.54344 -10.5193 0.54608
head 3.2173 -5.38584 0.762751
rclavicle -3.66509e-015 -1.59028e-015
rhumerus 35.3735 -25.234 -50.7092
rradius 82.7972
rwrist 14.9022
rhand -18.5081 -5.27666
rfingers 7.12502
rthumb 7.77997 -35.1135
lclavicle -3.66509e-015 -1.59028e-015
lhumerus 58.9467 11.4035 67.0521
lradius 74.826
lwrist -9.5269
lhand 29.669 5.98161
lfingers 7.12502
lthumb 53.4091 25.2114
rfemur -30.7078 1.95846 11.6993
rtibia 34.6421
rfoot 16.5966 -5.64355
rtoes 9.83233
lfemur -34.3859 4.44464 -10.7487
ltibia 40.6785
lfoot 9.87029 -4.25394
ltoes -6.67069
1717
root -14.276 27.2174 -4.47192 311.556 -4.51428 1.6131
lowerback 37.5617 0.741773 3.23611
upperback 13.431 2.15754 1.43564
thorax -3.56547 1.12291 -0.917809
lowerneck 1.1442 -7.42407 -5.39754
upperneck 10.7455 -10.0315 1.69388
head 3.69983 -5.12659 1.17056
rclavicle -2.48481e-014 1.19271e-015
rhumerus 35.4382 -25.4372 -51.3927
rradius 82.6671
rwrist 15.09
rhand -17.2655 -5.17644
rfingers 7.12502
rthumb 8.9792 -34.9653
lclavicle -2.48481e-014 1.19271e-015
lhumerus 59.4123 11.2518 66.3587
lradius 74.828
lwrist -8.08722
lhand 31.3775 6.82983
lfingers 7.12502
lthumb 54.941 25.0111
rfemur -30.936 2.49293 14.0524
rtibia 34.1818
rfoot 16.3304 -6.22126
rtoes 12.2984
lfemur -34.899 4.84786 -8.631
ltibia 40.7114
lfoot 9.94353 -4.09174
ltoes -5.49874
